<svg width="244" height="21" viewBox="0 0 244 21" fill="none" xmlns="http://www.w3.org/2000/svg">
<path d="M-6.85453e-06 20.048V0.168003H4.59199V16.016H14.224V20.048H-6.85453e-06ZM23.8291 20.216C22.3544 20.216 21.0104 19.9267 19.7971 19.348C18.5838 18.7693 17.5478 18.0133 16.6891 17.08C15.8304 16.128 15.1584 15.0453 14.6731 13.832C14.2064 12.6187 13.9731 11.368 13.9731 10.08C13.9731 8.77334 14.2158 7.51334 14.7011 6.3C15.2051 5.08667 15.8958 4.02267 16.7731 3.108C17.6691 2.17467 18.7238 1.43734 19.9371 0.896004C21.1504 0.336003 22.4758 0.0560029 23.9131 0.0560029C25.3878 0.0560029 26.7318 0.345336 27.9451 0.924003C29.1584 1.50267 30.1944 2.268 31.0531 3.22C31.9118 4.172 32.5744 5.25467 33.0411 6.468C33.5078 7.68134 33.7411 8.91334 33.7411 10.164C33.7411 11.4707 33.4891 12.7307 32.9851 13.944C32.4998 15.1573 31.8184 16.2307 30.9411 17.164C30.0638 18.0787 29.0184 18.816 27.8051 19.376C26.5918 19.936 25.2664 20.216 23.8291 20.216ZM18.6491 10.136C18.6491 10.9013 18.7611 11.648 18.9851 12.376C19.2091 13.0853 19.5358 13.72 19.9651 14.28C20.4131 14.84 20.9638 15.288 21.6171 15.624C22.2704 15.96 23.0171 16.128 23.8571 16.128C24.7344 16.128 25.4998 15.9507 26.1531 15.596C26.8064 15.2413 27.3478 14.784 27.7771 14.224C28.2064 13.6453 28.5238 13.0013 28.7291 12.292C28.9531 11.564 29.0651 10.8267 29.0651 10.08C29.0651 9.31467 28.9531 8.57734 28.7291 7.868C28.5051 7.14 28.1691 6.50534 27.7211 5.964C27.2731 5.404 26.7224 4.96534 26.0691 4.648C25.4344 4.312 24.6971 4.144 23.8571 4.144C22.9798 4.144 22.2144 4.32134 21.5611 4.676C20.9264 5.012 20.3851 5.46 19.9371 6.02C19.5078 6.58 19.1811 7.224 18.9571 7.952C18.7518 8.66134 18.6491 9.38934 18.6491 10.136ZM36.3945 20.048V0.168003H45.3545C46.2879 0.168003 47.1465 0.364003 47.9305 0.756004C48.7332 1.148 49.4239 1.66134 50.0025 2.296C50.5812 2.93067 51.0292 3.64934 51.3465 4.452C51.6825 5.25467 51.8505 6.06667 51.8505 6.888C51.8505 7.504 51.7759 8.10134 51.6265 8.68C51.4772 9.24 51.2625 9.772 50.9825 10.276C50.7025 10.78 50.3572 11.2373 49.9465 11.648C49.5545 12.04 49.1065 12.376 48.6025 12.656L52.9705 20.048H47.7905L43.9825 13.636H40.9865V20.048H36.3945ZM40.9865 9.632H45.1865C45.7279 9.632 46.1945 9.38 46.5865 8.876C46.9785 8.35334 47.1745 7.69067 47.1745 6.888C47.1745 6.06667 46.9505 5.41334 46.5025 4.928C46.0545 4.44267 45.5692 4.2 45.0465 4.2H40.9865V9.632ZM69.1243 16.016V20.048H55.1523V0.168003H68.8723V4.2H59.7443V8.064H67.5843V11.788H59.7443V16.016H69.1243ZM87.5941 20.048V8.148L83.2821 16.8H80.8181L76.5061 8.148V20.048H71.9141V0.168003H76.8981L82.0501 10.556L87.2301 0.168003H92.1861V20.048H87.5941ZM96.0039 20.048V0.168003H100.596V20.048H96.0039ZM104.398 20.048V0.168003H112.882C113.834 0.168003 114.702 0.364003 115.486 0.756004C116.289 1.148 116.97 1.66134 117.53 2.296C118.109 2.93067 118.557 3.64934 118.874 4.452C119.21 5.25467 119.378 6.06667 119.378 6.888C119.378 7.76534 119.22 8.60534 118.902 9.408C118.604 10.2107 118.174 10.9293 117.614 11.564C117.073 12.1987 116.41 12.7027 115.626 13.076C114.842 13.4493 113.974 13.636 113.022 13.636H108.99V20.048H104.398ZM108.99 9.632H112.742C113.284 9.632 113.75 9.39867 114.142 8.932C114.534 8.46534 114.73 7.784 114.73 6.888C114.73 6.42134 114.665 6.02 114.534 5.684C114.422 5.348 114.264 5.068 114.058 4.844C113.853 4.62 113.62 4.46134 113.358 4.368C113.097 4.256 112.836 4.2 112.574 4.2H108.99V9.632ZM133.772 5.992C133.716 5.91734 133.52 5.77734 133.184 5.572C132.848 5.36667 132.428 5.152 131.924 4.928C131.42 4.704 130.869 4.508 130.272 4.34C129.674 4.172 129.077 4.088 128.48 4.088C126.837 4.088 126.016 4.63867 126.016 5.74C126.016 6.076 126.1 6.356 126.268 6.58C126.454 6.804 126.716 7.00934 127.052 7.196C127.406 7.364 127.845 7.52267 128.368 7.672C128.89 7.82134 129.497 7.98934 130.188 8.176C131.14 8.43734 131.998 8.72667 132.764 9.044C133.529 9.34267 134.173 9.72534 134.696 10.192C135.237 10.64 135.648 11.1907 135.928 11.844C136.226 12.4973 136.376 13.2813 136.376 14.196C136.376 15.316 136.161 16.268 135.732 17.052C135.321 17.8173 134.77 18.4427 134.08 18.928C133.389 19.3947 132.596 19.74 131.7 19.964C130.804 20.1693 129.88 20.272 128.928 20.272C128.2 20.272 127.453 20.216 126.688 20.104C125.922 19.992 125.176 19.8333 124.448 19.628C123.72 19.404 123.01 19.1427 122.32 18.844C121.648 18.5453 121.022 18.2 120.444 17.808L122.46 13.804C122.534 13.8973 122.777 14.0747 123.188 14.336C123.598 14.5973 124.102 14.8587 124.7 15.12C125.316 15.3813 125.997 15.6147 126.744 15.82C127.49 16.0253 128.246 16.128 129.012 16.128C130.636 16.128 131.448 15.6333 131.448 14.644C131.448 14.2707 131.326 13.9627 131.084 13.72C130.841 13.4773 130.505 13.2627 130.076 13.076C129.646 12.8707 129.133 12.684 128.536 12.516C127.957 12.348 127.322 12.1613 126.632 11.956C125.717 11.676 124.924 11.3773 124.252 11.06C123.58 10.724 123.02 10.3413 122.572 9.912C122.142 9.48267 121.816 8.988 121.592 8.428C121.386 7.868 121.284 7.21467 121.284 6.468C121.284 5.42267 121.48 4.49867 121.872 3.696C122.264 2.89334 122.796 2.22134 123.468 1.68C124.14 1.12 124.914 0.700003 125.792 0.420003C126.688 0.140003 127.63 3.57628e-06 128.62 3.57628e-06C129.31 3.57628e-06 129.992 0.0653366 130.664 0.196003C131.336 0.32667 131.98 0.49467 132.596 0.700003C133.212 0.905337 133.781 1.13867 134.304 1.4C134.845 1.66134 135.34 1.92267 135.788 2.184L133.772 5.992ZM147.61 16.128C148.394 16.128 149.057 15.9693 149.598 15.652C150.14 15.316 150.578 14.8773 150.914 14.336C151.25 13.7947 151.484 13.1787 151.614 12.488C151.764 11.7787 151.838 11.06 151.838 10.332V0.168003H156.43V10.332C156.43 11.7133 156.253 13.0013 155.898 14.196C155.562 15.3907 155.03 16.436 154.302 17.332C153.593 18.228 152.678 18.9373 151.558 19.46C150.457 19.964 149.141 20.216 147.61 20.216C146.024 20.216 144.67 19.9453 143.55 19.404C142.43 18.8627 141.516 18.144 140.806 17.248C140.116 16.3333 139.602 15.2787 139.266 14.084C138.949 12.8893 138.79 11.6387 138.79 10.332V0.168003H143.382V10.332C143.382 11.0973 143.457 11.8253 143.606 12.516C143.756 13.2067 143.998 13.8227 144.334 14.364C144.67 14.9053 145.1 15.3347 145.622 15.652C146.164 15.9693 146.826 16.128 147.61 16.128ZM175.668 20.048V8.148L171.356 16.8H168.892L164.58 8.148V20.048H159.988V0.168003H164.972L170.124 10.556L175.304 0.168003H180.26V20.048H175.668ZM183.686 20.048V15.484H187.354V20.048H183.686Z" fill="white"/>
<path d="M195.369 8.68V20.048H190.777V0.168003H194.361L203.629 11.844V0.168003H208.221V20.048H204.525L195.369 8.68ZM225.995 16.016V20.048H212.023V0.168003H225.743V4.2H216.615V8.064H224.455V11.788H216.615V16.016H225.995ZM243.933 4.2H237.885V20.048H233.293V4.2H227.217V0.168003H243.933V4.2Z" fill="#42A9ED"/>
</svg>
